<svg width="50" height="50" viewBox="0 0 50 50" fill="none" xmlns="http://www.w3.org/2000/svg">
<path d="M45.8008 22.3398L36.9922 30.0273L39.6309 41.4726C39.7705 42.071 39.7307 42.6972 39.5164 43.273C39.302 43.8488 38.9227 44.3486 38.4258 44.71C37.929 45.0714 37.3366 45.2783 36.7228 45.3049C36.1089 45.3315 35.5009 45.1765 34.9747 44.8593L24.9922 38.8047L15.0313 44.8593C14.5051 45.1765 13.897 45.3315 13.2832 45.3049C12.6694 45.2783 12.077 45.0714 11.5801 44.71C11.0832 44.3486 10.7039 43.8488 10.4896 43.273C10.2753 42.6972 10.2354 42.071 10.375 41.4726L13.0098 30.039L4.19926 22.3398C3.73326 21.9379 3.3963 21.4074 3.23062 20.8147C3.06495 20.2221 3.07793 19.5937 3.26796 19.0084C3.45798 18.4231 3.81658 17.9069 4.29879 17.5246C4.781 17.1423 5.36535 16.9109 5.97856 16.8594L17.5918 15.8535L22.125 5.04099C22.3618 4.47364 22.7611 3.98901 23.2727 3.64814C23.7843 3.30726 24.3853 3.12537 25 3.12537C25.6148 3.12537 26.2158 3.30726 26.7274 3.64814C27.239 3.98901 27.6383 4.47364 27.875 5.04099L32.4219 15.8535L44.0313 16.8594C44.6445 16.9109 45.2289 17.1423 45.7111 17.5246C46.1933 17.9069 46.5519 18.4231 46.7419 19.0084C46.9319 19.5937 46.9449 20.2221 46.7792 20.8147C46.6136 21.4074 46.2766 21.9379 45.8106 22.3398H45.8008Z" fill="#10A19D"/>
</svg>
