<svg width="24" height="24" viewBox="0 0 24 24" fill="none" xmlns="http://www.w3.org/2000/svg">
<path d="M13.052 14.8288L14.466 16.2428L18.71 11.9998L14.467 7.75684L13.053 9.17184L14.88 10.9998L7.34302 10.9998L7.34302 12.9998L14.88 12.9998L13.052 14.8288Z" fill="#10A19D"/>
<path fill-rule="evenodd" clip-rule="evenodd" d="M20.778 19.778C25.074 15.482 25.074 8.518 20.778 4.222C16.482 -0.0739999 9.518 -0.0739999 5.222 4.222C0.926001 8.518 0.926001 15.482 5.222 19.778C9.518 24.074 16.482 24.074 20.778 19.778ZM19.364 18.364C21.0518 16.6762 22.0001 14.387 22.0001 12C22.0001 9.61304 21.0518 7.32384 19.364 5.636C17.6762 3.94816 15.387 2.99994 13 2.99994C10.613 2.99994 8.32384 3.94816 6.636 5.636C4.94816 7.32384 3.99994 9.61304 3.99994 12C3.99994 14.387 4.94816 16.6762 6.636 18.364C8.32384 20.0518 10.613 21.0001 13 21.0001C15.387 21.0001 17.6762 20.0518 19.364 18.364Z" fill="#10A19D"/>
</svg>
