<svg width="30" height="30" viewBox="0 0 30 30" fill="none" xmlns="http://www.w3.org/2000/svg">
<rect width="30" height="30" fill="#F4F4F4"/>
<path d="M10.8 5H19.2C22.4 5 25 7.6 25 10.8V19.2C25 20.7383 24.3889 22.2135 23.3012 23.3012C22.2135 24.3889 20.7383 25 19.2 25H10.8C7.6 25 5 22.4 5 19.2V10.8C5 9.26174 5.61107 7.78649 6.69878 6.69878C7.78649 5.61107 9.26174 5 10.8 5ZM10.6 7C9.64522 7 8.72955 7.37928 8.05442 8.05442C7.37928 8.72955 7 9.64522 7 10.6V19.4C7 21.39 8.61 23 10.6 23H19.4C20.3548 23 21.2705 22.6207 21.9456 21.9456C22.6207 21.2705 23 20.3548 23 19.4V10.6C23 8.61 21.39 7 19.4 7H10.6ZM20.25 8.5C20.5815 8.5 20.8995 8.6317 21.1339 8.86612C21.3683 9.10054 21.5 9.41848 21.5 9.75C21.5 10.0815 21.3683 10.3995 21.1339 10.6339C20.8995 10.8683 20.5815 11 20.25 11C19.9185 11 19.6005 10.8683 19.3661 10.6339C19.1317 10.3995 19 10.0815 19 9.75C19 9.41848 19.1317 9.10054 19.3661 8.86612C19.6005 8.6317 19.9185 8.5 20.25 8.5ZM15 10C16.3261 10 17.5979 10.5268 18.5355 11.4645C19.4732 12.4021 20 13.6739 20 15C20 16.3261 19.4732 17.5979 18.5355 18.5355C17.5979 19.4732 16.3261 20 15 20C13.6739 20 12.4021 19.4732 11.4645 18.5355C10.5268 17.5979 10 16.3261 10 15C10 13.6739 10.5268 12.4021 11.4645 11.4645C12.4021 10.5268 13.6739 10 15 10ZM15 12C14.2044 12 13.4413 12.3161 12.8787 12.8787C12.3161 13.4413 12 14.2044 12 15C12 15.7956 12.3161 16.5587 12.8787 17.1213C13.4413 17.6839 14.2044 18 15 18C15.7956 18 16.5587 17.6839 17.1213 17.1213C17.6839 16.5587 18 15.7956 18 15C18 14.2044 17.6839 13.4413 17.1213 12.8787C16.5587 12.3161 15.7956 12 15 12Z" fill="#FF7000"/>
</svg>
