<svg width="30" height="30" viewBox="0 0 30 30" fill="none" xmlns="http://www.w3.org/2000/svg">
<rect width="30" height="30" fill="#F4F4F4"/>
<path d="M25.212 8.65599C24.4489 8.99359 23.6396 9.21536 22.811 9.31399C23.6841 8.79112 24.3373 7.96873 24.649 6.99999C23.829 7.48799 22.93 7.82999 21.994 8.01499C21.3646 7.34157 20.5304 6.89495 19.621 6.74457C18.7116 6.59419 17.7779 6.74848 16.9653 7.18344C16.1526 7.6184 15.5064 8.30967 15.1271 9.14978C14.7478 9.98989 14.6568 10.9318 14.868 11.829C13.2049 11.7458 11.578 11.3137 10.0927 10.5609C8.60752 9.80799 7.29724 8.75116 6.247 7.45899C5.87529 8.09744 5.67996 8.82321 5.681 9.56199C5.681 11.012 6.42 12.293 7.541 13.043C6.87702 13.022 6.22765 12.8427 5.647 12.52V12.571C5.64697 13.5369 5.98104 14.473 6.59253 15.2207C7.20403 15.9683 8.05532 16.4814 9.002 16.673C8.38564 16.8402 7.7393 16.8648 7.112 16.745C7.37893 17.5764 7.89922 18.3035 8.6 18.8244C9.30078 19.3453 10.147 19.634 11.02 19.65C10.1524 20.3314 9.15889 20.8352 8.09641 21.1324C7.03393 21.4295 5.92329 21.5144 4.828 21.382C6.73972 22.6114 8.96511 23.2641 11.238 23.262C18.932 23.262 23.138 16.889 23.138 11.362C23.138 11.182 23.134 11 23.126 10.821C23.9444 10.2293 24.6508 9.49555 25.212 8.65599Z" fill="#FF7000"/>
</svg>
