<svg width="30" height="30" viewBox="0 0 30 30" fill="none" xmlns="http://www.w3.org/2000/svg">
<rect width="30" height="30" fill="#F4F4F4"/>
<path d="M13 18L18.19 15L13 12V18ZM24.56 10.17C24.69 10.64 24.78 11.27 24.84 12.07C24.91 12.87 24.94 13.56 24.94 14.16L25 15C25 17.19 24.84 18.8 24.56 19.83C24.31 20.73 23.73 21.31 22.83 21.56C22.36 21.69 21.5 21.78 20.18 21.84C18.88 21.91 17.69 21.94 16.59 21.94L15 22C10.81 22 8.2 21.84 7.17 21.56C6.27 21.31 5.69 20.73 5.44 19.83C5.31 19.36 5.22 18.73 5.16 17.93C5.09 17.13 5.06 16.44 5.06 15.84L5 15C5 12.81 5.16 11.2 5.44 10.17C5.69 9.27 6.27 8.69 7.17 8.44C7.64 8.31 8.5 8.22 9.82 8.16C11.12 8.09 12.31 8.06 13.41 8.06L15 8C19.19 8 21.8 8.16 22.83 8.44C23.73 8.69 24.31 9.27 24.56 10.17Z" fill="#FF7000"/>
</svg>
