<svg width="30" height="30" viewBox="0 0 30 30" fill="none" xmlns="http://www.w3.org/2000/svg">
<rect x="0.5" y="0.5" width="29" height="29" rx="2.5" fill="#F4F4F4" stroke="#10A19D"/>
<path d="M21 25C20.1667 25 19.4583 24.7083 18.875 24.125C18.2917 23.5417 18 22.8333 18 22C18 21.8833 18.0083 21.7623 18.025 21.637C18.0417 21.5117 18.0667 21.3993 18.1 21.3L11.05 17.2C10.7667 17.45 10.45 17.646 10.1 17.788C9.75 17.93 9.38333 18.0007 9 18C8.16667 18 7.45833 17.7083 6.875 17.125C6.29167 16.5417 6 15.8333 6 15C6 14.1667 6.29167 13.4583 6.875 12.875C7.45833 12.2917 8.16667 12 9 12C9.38333 12 9.75 12.071 10.1 12.213C10.45 12.355 10.7667 12.5507 11.05 12.8L18.1 8.7C18.0667 8.6 18.0417 8.48767 18.025 8.363C18.0083 8.23833 18 8.11733 18 8C18 7.16667 18.2917 6.45833 18.875 5.875C19.4583 5.29167 20.1667 5 21 5C21.8333 5 22.5417 5.29167 23.125 5.875C23.7083 6.45833 24 7.16667 24 8C24 8.83333 23.7083 9.54167 23.125 10.125C22.5417 10.7083 21.8333 11 21 11C20.6167 11 20.25 10.9293 19.9 10.788C19.55 10.6467 19.2333 10.4507 18.95 10.2L11.9 14.3C11.9333 14.4 11.9583 14.5127 11.975 14.638C11.9917 14.7633 12 14.884 12 15C12 15.1167 11.9917 15.2377 11.975 15.363C11.9583 15.4883 11.9333 15.6007 11.9 15.7L18.95 19.8C19.2333 19.55 19.55 19.3543 19.9 19.213C20.25 19.0717 20.6167 19.0007 21 19C21.8333 19 22.5417 19.2917 23.125 19.875C23.7083 20.4583 24 21.1667 24 22C24 22.8333 23.7083 23.5417 23.125 24.125C22.5417 24.7083 21.8333 25 21 25Z" fill="#10A19D"/>
</svg>
