<svg width="70" height="70" viewBox="0 0 70 70" fill="none" xmlns="http://www.w3.org/2000/svg">
<circle cx="35" cy="35" r="35" fill="#10A19D"/>
<path d="M35 34.375C34.1712 34.375 33.3763 34.0458 32.7903 33.4597C32.2042 32.8737 31.875 32.0788 31.875 31.25C31.875 30.4212 32.2042 29.6263 32.7903 29.0403C33.3763 28.4542 34.1712 28.125 35 28.125C35.8288 28.125 36.6237 28.4542 37.2097 29.0403C37.7958 29.6263 38.125 30.4212 38.125 31.25C38.125 31.6604 38.0442 32.0667 37.8871 32.4459C37.7301 32.825 37.4999 33.1695 37.2097 33.4597C36.9195 33.7499 36.575 33.9801 36.1959 34.1371C35.8167 34.2942 35.4104 34.375 35 34.375ZM35 22.5C32.6794 22.5 30.4538 23.4219 28.8128 25.0628C27.1719 26.7038 26.25 28.9294 26.25 31.25C26.25 37.8125 35 47.5 35 47.5C35 47.5 43.75 37.8125 43.75 31.25C43.75 28.9294 42.8281 26.7038 41.1872 25.0628C39.5462 23.4219 37.3206 22.5 35 22.5Z" fill="#F4F4F4"/>
</svg>
