<svg width="70" height="70" viewBox="0 0 70 70" fill="none" xmlns="http://www.w3.org/2000/svg">
<circle cx="35" cy="35" r="35" fill="#10A19D"/>
<path d="M20.9375 25C20.9375 24.2044 21.2338 23.4413 21.7613 22.8787C22.2887 22.3161 23.0041 22 23.75 22H46.25C46.9959 22 47.7113 22.3161 48.2387 22.8787C48.7662 23.4413 49.0625 24.2044 49.0625 25V27.416L35 35.852L20.9375 27.416V25Z" fill="#F4F4F4"/>
<path d="M20.9375 29.71V45C20.9375 45.7957 21.2338 46.5587 21.7613 47.1213C22.2887 47.6839 23.0041 48 23.75 48H46.25C46.9959 48 47.7113 47.6839 48.2387 47.1213C48.7662 46.5587 49.0625 45.7957 49.0625 45V29.71L35 38.148L20.9375 29.71Z" fill="#F4F4F4"/>
</svg>
