<svg width="70" height="70" viewBox="0 0 70 70" fill="none" xmlns="http://www.w3.org/2000/svg">
<circle cx="35" cy="35" r="35" fill="#10A19D"/>
<path d="M28.275 33.4875C30.075 37.025 32.975 39.9125 36.5125 41.725L39.2625 38.975C39.6 38.6375 40.1 38.525 40.5375 38.675C41.9375 39.1375 43.45 39.3875 45 39.3875C45.6875 39.3875 46.25 39.95 46.25 40.6375V45C46.25 45.6875 45.6875 46.25 45 46.25C33.2625 46.25 23.75 36.7375 23.75 25C23.75 24.3125 24.3125 23.75 25 23.75H29.375C30.0625 23.75 30.625 24.3125 30.625 25C30.625 26.5625 30.875 28.0625 31.3375 29.4625C31.475 29.9 31.375 30.3875 31.025 30.7375L28.275 33.4875Z" fill="#F4F4F4"/>
</svg>
