<svg width="30" height="30" viewBox="0 0 30 30" fill="none" xmlns="http://www.w3.org/2000/svg">
<path d="M28.0758 7.5C27.1133 7.9375 26.0758 8.225 25.0008 8.3625C26.1008 7.7 26.9508 6.65 27.3508 5.3875C26.3133 6.0125 25.1633 6.45 23.9508 6.7C22.9633 5.625 21.5758 5 20.0008 5C17.0633 5 14.6633 7.4 14.6633 10.3625C14.6633 10.7875 14.7133 11.2 14.8008 11.5875C10.3508 11.3625 6.38828 9.225 3.75078 5.9875C3.28828 6.775 3.02578 7.7 3.02578 8.675C3.02578 10.5375 3.96328 12.1875 5.41328 13.125C4.52578 13.125 3.70078 12.875 2.97578 12.5V12.5375C2.97578 15.1375 4.82578 17.3125 7.27578 17.8C6.48919 18.0153 5.6634 18.0452 4.86328 17.8875C5.20279 18.9531 5.8677 19.8855 6.76455 20.5537C7.6614 21.2218 8.74509 21.5921 9.86328 21.6125C7.96782 23.113 5.61828 23.9241 3.20078 23.9125C2.77578 23.9125 2.35078 23.8875 1.92578 23.8375C4.30078 25.3625 7.12578 26.25 10.1508 26.25C20.0008 26.25 25.4133 18.075 25.4133 10.9875C25.4133 10.75 25.4133 10.525 25.4008 10.2875C26.4508 9.5375 27.3508 8.5875 28.0758 7.5Z" fill="#10A19D"/>
</svg>
