<svg width="50" height="50" viewBox="0 0 50 50" fill="none" xmlns="http://www.w3.org/2000/svg">
<circle cx="25" cy="25" r="25" fill="#C5E9E7"/>
<g clip-path="url(#clip0_24_2803)">
<path d="M24.1055 25.0039C23.9102 24.3789 23.9141 23.1719 24.0273 23.1719C24.3555 23.1719 24.3242 24.6133 24.1055 25.0039ZM24.0391 26.8477C23.7383 27.6367 23.3633 28.5391 22.9297 29.2969C23.6445 29.0234 24.4531 28.625 25.3867 28.4414C24.8906 28.0664 24.4141 27.5273 24.0391 26.8477ZM20.3633 31.7227C20.3633 31.7539 20.8789 31.5117 21.7266 30.1523C21.4648 30.3984 20.5898 31.1094 20.3633 31.7227ZM26.6875 21.25H32V34.0625C32 34.582 31.582 35 31.0625 35H17.9375C17.418 35 17 34.582 17 34.0625V15.9375C17 15.418 17.418 15 17.9375 15H25.75V20.3125C25.75 20.8281 26.1719 21.25 26.6875 21.25ZM26.375 27.9609C25.5938 27.4844 25.0742 26.8281 24.707 25.8594C24.8828 25.1367 25.1602 24.0391 24.9492 23.3516C24.7656 22.2031 23.293 22.3164 23.082 23.0859C22.8867 23.8008 23.0664 24.8086 23.3984 26.0938C22.9453 27.1719 22.2773 28.6172 21.8047 29.4453C21.8008 29.4453 21.8008 29.4492 21.7969 29.4492C20.7383 29.9922 18.9219 31.1875 19.668 32.1055C19.8867 32.375 20.293 32.4961 20.5078 32.4961C21.207 32.4961 21.9023 31.793 22.8945 30.082C23.9023 29.75 25.0078 29.3359 25.9805 29.1758C26.8281 29.6367 27.8203 29.9375 28.4805 29.9375C29.6211 29.9375 29.6992 28.6875 29.25 28.2422C28.707 27.7109 27.1289 27.8633 26.375 27.9609ZM31.7266 19.1016L27.8984 15.2734C27.7227 15.0977 27.4844 15 27.2344 15H27V20H32V19.7617C32 19.5156 31.9023 19.2773 31.7266 19.1016ZM28.832 29.0742C28.9922 28.9687 28.7344 28.6094 27.1602 28.7227C28.6094 29.3398 28.832 29.0742 28.832 29.0742Z" fill="#10A19D"/>
</g>
<defs>
<clipPath id="clip0_24_2803">
<rect width="15" height="20" fill="white" transform="translate(17 15)"/>
</clipPath>
</defs>
</svg>
