<svg width="30" height="30" viewBox="0 0 30 30" fill="none" xmlns="http://www.w3.org/2000/svg">
<circle cx="15" cy="15" r="15" fill="#10A19D"/>
<path d="M20.8333 8.54199H9.16668C8.78058 8.54418 8.41091 8.69853 8.1379 8.97155C7.86488 9.24456 7.71053 9.61423 7.70834 10.0003V20.0003C7.71053 20.3864 7.86488 20.7561 8.1379 21.0291C8.41091 21.3021 8.78058 21.4565 9.16668 21.4587H20.8333C21.2194 21.4565 21.5891 21.3021 21.8621 21.0291C22.1351 20.7561 22.2895 20.3864 22.2917 20.0003V10.0003C22.2895 9.61423 22.1351 9.24456 21.8621 8.97155C21.5891 8.69853 21.2194 8.54418 20.8333 8.54199ZM9.16668 9.79199H20.8333C20.8886 9.79199 20.9416 9.81394 20.9807 9.85301C21.0197 9.89208 21.0417 9.94507 21.0417 10.0003V11.2837L15 14.3003L8.95834 11.2837V10.0003C8.95834 9.94507 8.98029 9.89208 9.01936 9.85301C9.05843 9.81394 9.11142 9.79199 9.16668 9.79199ZM20.8333 20.2087H9.16668C9.11142 20.2087 9.05843 20.1867 9.01936 20.1476C8.98029 20.1086 8.95834 20.0556 8.95834 20.0003V12.6753L14.7167 15.5587C14.8046 15.6027 14.9017 15.6256 15 15.6256C15.0984 15.6256 15.1954 15.6027 15.2833 15.5587L21.0417 12.6753V20.0003C21.0417 20.0556 21.0197 20.1086 20.9807 20.1476C20.9416 20.1867 20.8886 20.2087 20.8333 20.2087Z" fill="#F4F4F4"/>
</svg>
