<svg width="30" height="30" viewBox="0 0 30 30" fill="none" xmlns="http://www.w3.org/2000/svg">
<circle cx="15" cy="15" r="15" fill="#10A19D"/>
<path d="M15 14.5837C14.4475 14.5837 13.9176 14.3642 13.5269 13.9735C13.1362 13.5828 12.9167 13.0529 12.9167 12.5003C12.9167 11.9478 13.1362 11.4179 13.5269 11.0272C13.9176 10.6365 14.4475 10.417 15 10.417C15.5525 10.417 16.0824 10.6365 16.4731 11.0272C16.8638 11.4179 17.0833 11.9478 17.0833 12.5003C17.0833 12.7739 17.0294 13.0448 16.9247 13.2976C16.82 13.5503 16.6666 13.78 16.4731 13.9735C16.2797 14.1669 16.05 14.3204 15.7972 14.4251C15.5445 14.5298 15.2736 14.5837 15 14.5837ZM15 6.66699C13.4529 6.66699 11.9692 7.28157 10.8752 8.37554C9.78124 9.4695 9.16666 10.9532 9.16666 12.5003C9.16666 16.8753 15 23.3337 15 23.3337C15 23.3337 20.8333 16.8753 20.8333 12.5003C20.8333 10.9532 20.2187 9.4695 19.1248 8.37554C18.0308 7.28157 16.5471 6.66699 15 6.66699Z" fill="#F4F4F4"/>
</svg>
