<svg width="30" height="30" viewBox="0 0 30 30" fill="none" xmlns="http://www.w3.org/2000/svg">
<circle cx="15" cy="15" r="15" fill="#10A19D"/>
<path d="M10.5167 13.9917C11.7167 16.35 13.65 18.275 16.0083 19.4833L17.8417 17.65C18.0667 17.425 18.4 17.35 18.6917 17.45C19.625 17.7583 20.6333 17.925 21.6667 17.925C22.125 17.925 22.5 18.3 22.5 18.7583V21.6667C22.5 22.125 22.125 22.5 21.6667 22.5C13.8417 22.5 7.5 16.1583 7.5 8.33333C7.5 7.875 7.875 7.5 8.33333 7.5H11.25C11.7083 7.5 12.0833 7.875 12.0833 8.33333C12.0833 9.375 12.25 10.375 12.5583 11.3083C12.65 11.6 12.5833 11.925 12.35 12.1583L10.5167 13.9917Z" fill="#F4F4F4"/>
</svg>
