<svg width="80" height="16" viewBox="0 0 80 16" fill="none" xmlns="http://www.w3.org/2000/svg">
<path d="M8.00016 11.5133L12.1202 14L11.0268 9.31334L14.6668 6.16001L9.8735 5.75334L8.00016 1.33334L6.12683 5.75334L1.3335 6.16001L4.9735 9.31334L3.88016 14L8.00016 11.5133Z" fill="#FFD600"/>
<path d="M24.0002 11.5133L28.1202 14L27.0268 9.31334L30.6668 6.16001L25.8735 5.75334L24.0002 1.33334L22.1268 5.75334L17.3335 6.16001L20.9735 9.31334L19.8802 14L24.0002 11.5133Z" fill="#FFD600"/>
<path d="M40.0002 11.5133L44.1202 14L43.0268 9.31334L46.6668 6.16001L41.8735 5.75334L40.0002 1.33334L38.1268 5.75334L33.3335 6.16001L36.9735 9.31334L35.8802 14L40.0002 11.5133Z" fill="#FFD600"/>
<g opacity="0.4">
<path d="M56.0002 11.5133L60.1202 14L59.0268 9.31334L62.6668 6.16001L57.8735 5.75334L56.0002 1.33334L54.1268 5.75334L49.3335 6.16001L52.9735 9.31334L51.8802 14L56.0002 11.5133Z" fill="#FFD600"/>
</g>
<path d="M72.0002 11.5133L76.1202 14L75.0268 9.31334L78.6668 6.16001L73.8735 5.75334L72.0002 1.33334L70.1268 5.75334L65.3335 6.16001L68.9735 9.31334L67.8802 14L72.0002 11.5133Z" fill="#FFD600"/>
<path d="M72.0002 11.5133L76.1202 14L75.0268 9.31334L78.6668 6.16001L73.8735 5.75334L72.0002 1.33334L70.1268 5.75334L65.3335 6.16001L68.9735 9.31334L67.8802 14L72.0002 11.5133Z" fill="#FFD600"/>
</svg>
