<svg width="24" height="24" viewBox="0 0 24 24" fill="none" xmlns="http://www.w3.org/2000/svg">
<path d="M22.2121 5.65599C21.449 5.99359 20.6397 6.21536 19.8111 6.31399C20.6842 5.79112 21.3374 4.96873 21.6491 3.99999C20.8291 4.48799 19.9301 4.82999 18.9941 5.01499C18.3647 4.34157 17.5305 3.89495 16.6211 3.74457C15.7117 3.59419 14.7781 3.74848 13.9654 4.18344C13.1527 4.6184 12.5065 5.30967 12.1272 6.14978C11.748 6.98989 11.6569 7.93177 11.8681 8.82899C10.2051 8.74578 8.57809 8.31371 7.09287 7.56085C5.60764 6.80799 4.29736 5.75116 3.24713 4.45899C2.87542 5.09744 2.68008 5.82321 2.68113 6.56199C2.68113 8.01199 3.42012 9.29299 4.54112 10.043C3.87714 10.022 3.22777 9.84273 2.64713 9.51999V9.57099C2.64709 10.5369 2.98116 11.473 3.59266 12.2207C4.20415 12.9683 5.05544 13.4814 6.00212 13.673C5.38577 13.8402 4.73942 13.8648 4.11212 13.745C4.37905 14.5764 4.89934 15.3035 5.60012 15.8244C6.30091 16.3453 7.14708 16.634 8.02013 16.65C7.15248 17.3314 6.15901 17.8352 5.09653 18.1324C4.03406 18.4295 2.92341 18.5144 1.82812 18.382C3.73985 19.6114 5.96523 20.2641 8.23812 20.262C15.9321 20.262 20.1381 13.889 20.1381 8.36199C20.1381 8.18199 20.1341 7.99999 20.1261 7.82099C20.9445 7.22935 21.6509 6.49555 22.2121 5.65599Z" fill="#10A19D"/>
</svg>
