<svg width="15" height="15" viewBox="0 0 15 15" fill="none" xmlns="http://www.w3.org/2000/svg">
<g clip-path="url(#clip0_29_3207)">
<path d="M6.31055 2.8125H2.8125V8.00977L0.00585938 5.93262C0.0527344 5.40234 0.325195 4.91016 0.758789 4.59082L1.40625 4.11035V2.8125C1.40625 2.03613 2.03613 1.40625 2.8125 1.40625H5.05664L6.51855 0.325195C6.80273 0.114258 7.14551 0 7.5 0C7.85449 0 8.19727 0.114258 8.48145 0.322266L9.94336 1.40625H12.1875C12.9639 1.40625 13.5938 2.03613 13.5938 2.8125V4.11035L14.2412 4.59082C14.6748 4.91016 14.9473 5.40234 14.9941 5.93262L12.1875 8.00977V2.8125H6.31055ZM0 13.125V7.09277L6.375 11.8154C6.7002 12.0557 7.0957 12.1875 7.5 12.1875C7.9043 12.1875 8.2998 12.0586 8.625 11.8154L15 7.09277V13.125C15 14.1592 14.1592 15 13.125 15H1.875C0.84082 15 0 14.1592 0 13.125ZM5.15625 4.6875H9.84375C10.1016 4.6875 10.3125 4.89844 10.3125 5.15625C10.3125 5.41406 10.1016 5.625 9.84375 5.625H5.15625C4.89844 5.625 4.6875 5.41406 4.6875 5.15625C4.6875 4.89844 4.89844 4.6875 5.15625 4.6875ZM5.15625 6.5625H9.84375C10.1016 6.5625 10.3125 6.77344 10.3125 7.03125C10.3125 7.28906 10.1016 7.5 9.84375 7.5H5.15625C4.89844 7.5 4.6875 7.28906 4.6875 7.03125C4.6875 6.77344 4.89844 6.5625 5.15625 6.5625Z" fill="#F4F4F4"/>
</g>
<defs>
<clipPath id="clip0_29_3207">
<rect width="15" height="15" fill="white"/>
</clipPath>
</defs>
</svg>
