<svg width="40" height="40" viewBox="0 0 40 40" fill="none" xmlns="http://www.w3.org/2000/svg">
<rect width="40" height="40" rx="2" fill="#10A19D"/>
<path d="M30.2121 13.656C29.449 13.9936 28.6397 14.2154 27.8111 14.314C28.6842 13.7912 29.3374 12.9688 29.6491 12C28.8291 12.488 27.9301 12.83 26.9941 13.015C26.3647 12.3416 25.5305 11.895 24.6211 11.7446C23.7117 11.5943 22.7781 11.7485 21.9654 12.1835C21.1527 12.6185 20.5065 13.3097 20.1272 14.1498C19.748 14.99 19.6569 15.9318 19.8681 16.829C18.2051 16.7458 16.5781 16.3138 15.0929 15.5609C13.6076 14.808 12.2974 13.7512 11.2471 12.459C10.8754 13.0975 10.6801 13.8233 10.6811 14.562C10.6811 16.012 11.4201 17.293 12.5411 18.043C11.8771 18.0221 11.2278 17.8428 10.6471 17.52V17.571C10.6471 18.5369 10.9812 19.4731 11.5927 20.2207C12.2042 20.9684 13.0554 21.4815 14.0021 21.673C13.3858 21.8403 12.7394 21.8649 12.1121 21.745C12.379 22.5764 12.8993 23.3035 13.6001 23.8244C14.3009 24.3454 15.1471 24.6341 16.0201 24.65C15.1525 25.3315 14.159 25.8352 13.0965 26.1324C12.0341 26.4296 10.9234 26.5144 9.82812 26.382C11.7398 27.6114 13.9652 28.2641 16.2381 28.262C23.9321 28.262 28.1381 21.889 28.1381 16.362C28.1381 16.182 28.1341 16 28.1261 15.821C28.9445 15.2294 29.6509 14.4956 30.2121 13.656Z" fill="#F4F4F4"/>
</svg>
