<svg width="50" height="50" viewBox="0 0 50 50" fill="none" xmlns="http://www.w3.org/2000/svg">
<circle cx="25" cy="25" r="25" fill="#10A19D"/>
<path d="M32 22V23C31.998 24.6818 31.3906 26.3068 30.2888 27.5775C29.187 28.8482 27.6646 29.6797 26 29.92V33H29V35H21V33H24V29.92C22.3354 29.6797 20.813 28.8482 19.7112 27.5775C18.6094 26.3068 18.002 24.6818 18 23V22H20V23C20 24.3261 20.5268 25.5979 21.4645 26.5355C22.4021 27.4732 23.6739 28 25 28C26.3261 28 27.5979 27.4732 28.5355 26.5355C29.4732 25.5979 30 24.3261 30 23V22H32ZM25 26C25.7956 26 26.5587 25.6839 27.1213 25.1213C27.6839 24.5587 28 23.7956 28 23V18C28 17.2044 27.6839 16.4413 27.1213 15.8787C26.5587 15.3161 25.7956 15 25 15C24.2044 15 23.4413 15.3161 22.8787 15.8787C22.3161 16.4413 22 17.2044 22 18V23C22 23.7956 22.3161 24.5587 22.8787 25.1213C23.4413 25.6839 24.2044 26 25 26Z" fill="#F4F4F4"/>
</svg>
